<svg xmlns="http://www.w3.org/2000/svg" viewBox="0 0 128 128">
  <path d="M32 6C24.8 6 19 11.8 19 19L19 109C19 116.2 24.8 122 32 122L96 122C103.2 122 109 116.2 109 109L109 29C109 22.9 106.60078 17.099219 102.30078 12.699219C98.000781 8.2992187 92.1 6 86 6L32 6 z M 89 12.300781C92.4 12.900781 95.5 14.5 98 17C100.5 19.5 102.09922 22.6 102.69922 26L96 26C92.1 26 89 22.9 89 19L89 12.300781 z M 42 23C47 23 51 27 51 32L51 37C51 42 47 46 42 46C37 46 33 42 33 37L33 32C33 27 37 23 42 23 z M 58 23L64 23C65.7 23 67 24.3 67 26L67 40L70 40C71.7 40 73 41.3 73 43C73 44.7 71.7 46 70 46L58 46C56.3 46 55 44.7 55 43C55 41.3 56.3 40 58 40L61 40L61 29L58 29C56.3 29 55 27.7 55 26C55 24.3 56.3 23 58 23 z M 42 29C40.3 29 39 30.3 39 32L39 37C39 38.7 40.3 40 42 40C43.7 40 45 38.7 45 37L45 32C45 30.3 43.7 29 42 29 z M 79.800781 29C81.500781 28.9 83 30.3 83 32L83 36.900391C83 38.400391 84.000391 39.7 85.400391 40C86.800391 40.3 87.999609 39.6 88.599609 38.5C89.099609 37.6 90.199219 37.099609 91.199219 37.099609C93.499219 37.099609 94.900781 39.5 93.800781 41.5C92.200781 44.4 89.000781 46.299609 85.300781 46.099609C80.500781 45.799609 76.900391 41.600781 76.900391 36.800781L76.900391 32.199219L77 32.199219C77 30.599219 78.200781 29.1 79.800781 29 z M 37 53L43 53C44.7 53 46 54.3 46 56L46 70L49 70C50.7 70 52 71.3 52 73C52 74.7 50.7 76 49 76L37 76C35.3 76 34 74.7 34 73C34 71.3 35.3 70 37 70L40 70L40 59L37 59C35.3 59 34 57.7 34 56C34 54.3 35.3 53 37 53 z M 64 53C69 53 73 57 73 62L73 67C73 72 69 76 64 76C59 76 55 72 55 67L55 62C55 57 59 53 64 53 z M 86 53C91 53 95 57 95 62L95 67C95 72 91 76 86 76C81 76 77 72 77 67L77 62C77 57 81 53 86 53 z M 64 59C62.3 59 61 60.3 61 62L61 67C61 68.7 62.3 70 64 70C65.7 70 67 68.7 67 67L67 62C67 60.3 65.7 59 64 59 z M 86 59C84.3 59 83 60.3 83 62L83 67C83 68.7 84.3 70 86 70C87.7 70 89 68.7 89 67L89 62C89 60.3 87.7 59 86 59 z M 42 83C47 83 51 87 51 92L51 97C51 102 47 106 42 106C37 106 33 102 33 97L33 92C33 87 37 83 42 83 z M 58 83L64 83C65.7 83 67 84.3 67 86L67 100L70 100C71.7 100 73 101.3 73 103C73 104.7 71.7 106 70 106L58 106C56.3 106 55 104.7 55 103C55 101.3 56.3 100 58 100L61 100L61 89L58 89C56.3 89 55 87.7 55 86C55 84.3 56.3 83 58 83 z M 86 83C91 83 95 87 95 92L95 97C95 102 91 106 86 106C81 106 77 102 77 97L77 92C77 87 81 83 86 83 z M 42 89C40.3 89 39 90.3 39 92L39 97C39 98.7 40.3 100 42 100C43.7 100 45 98.7 45 97L45 92C45 90.3 43.7 89 42 89 z M 86 89C84.3 89 83 90.3 83 92L83 97C83 98.7 84.3 100 86 100C87.7 100 89 98.7 89 97L89 92C89 90.3 87.7 89 86 89 z" fill="#2D8AAF" />
</svg>